<svg width="1024" height="848" viewBox="0 0 1024 848" fill="none" xmlns="http://www.w3.org/2000/svg">
<path d="M603.602 12.242C632.283 8.40376 673.366 2.11137 701.537 0C717.783 7.85665 745.965 29.891 762.116 41.476L862.403 113.062C878.139 124.441 910.755 145.087 923.088 155.94C934.145 163.432 959.016 179.576 967.806 187.758C978.006 193.888 1021.2 223.086 1023.91 232.619C1025.19 237.132 1012.23 332.746 1010.1 344.726C1004.79 346.341 989.181 349.276 987.435 349.979L986.816 351.412C985.488 362.243 982.455 391.108 979.557 400.843C975.766 428.131 971.673 455.376 967.279 482.571C962.124 511.994 957.042 540.261 952.877 569.873C948.753 592.437 945.799 613.55 942.812 636.303C939.328 654.655 937.84 674.998 934.441 691.88C868.826 703.581 797.759 720.182 732.185 734.127L668.459 747.401C662.144 748.704 644.087 751.949 638.702 753.738C622.669 757.022 606.673 760.487 590.717 764.128C586.875 765 566.947 769.658 564.065 769.644C555.475 772.142 551.698 772.661 542.598 771.345C421.502 797.617 300.25 823.171 178.849 848C174.407 840.688 170.344 832.805 167.089 824.902C154.617 794.653 141.67 765.437 127.106 736.133C120.782 723.627 115.987 711.084 110.176 698.414C94.5054 664.056 79.3539 629.466 64.7255 594.654C62.3581 589.3 60.7556 586 59.3466 580.226C56.6034 574.77 46.5207 555.212 45.7426 550.5C41.5508 525.143 40.1792 494.4 38.4976 468.69L29.1008 319.682C27.5907 291.806 26.7377 263.877 24.7551 236.001C24.8957 221.581 5.70629 207.507 3.59171 194.305C-1.74749 161.006 1.98929 124.52 0 90.9601C0.472593 87.9194 0.142904 89.0356 1.81346 86.3222C6.30639 84.7315 26.0651 82.2927 32.022 81.4622L105.621 71.6876L274.693 48.9021C302.345 45.1934 343.59 38.444 370.328 36.8841L371.774 36.8511L375.615 35.8055C375.867 34.3774 375.619 35.2693 376.775 33.2898C387.227 31.0488 436.777 25.4727 445.855 26.9227C466.675 25.1036 514.563 21.1972 533.195 16.6625C535.531 13.0066 537.85 9.21453 541.457 6.91862C557.574 -5.79571 587.776 2.14657 603.602 12.242Z" fill="#E90013"/>
<path d="M603.589 12.242C632.27 8.40376 673.353 2.11137 701.524 0C717.77 7.85665 745.952 29.891 762.103 41.476L862.39 113.062C878.126 124.441 910.741 145.087 923.075 155.94C934.132 163.432 959.003 179.576 967.793 187.758C977.993 193.888 1021.19 223.086 1023.9 232.619C1025.18 237.132 1012.22 332.746 1010.08 344.726C1004.78 346.341 989.168 349.276 987.422 349.979L986.803 351.412C985.475 362.243 982.442 391.108 979.544 400.843C975.753 428.131 971.66 455.376 967.266 482.571C962.111 511.994 957.029 540.261 952.864 569.873C948.74 592.437 945.786 613.55 942.799 636.303C939.315 654.655 937.827 674.998 934.428 691.88C868.813 703.581 797.746 720.182 732.172 734.127L668.446 747.401C662.131 748.704 644.074 751.949 638.689 753.738C622.656 757.022 606.66 760.487 590.704 764.128C586.862 765 566.934 769.658 564.052 769.644C555.462 772.142 551.685 772.661 542.585 771.345C555.534 763.769 554.51 757.196 554.727 743.04C555.956 724.183 555.675 708.848 557.675 689.588L558.915 680.029C556.651 666.431 565.703 618.112 567.709 601.175C569.233 587.735 569.562 574.19 568.701 560.694C569.42 552.185 570.033 540.859 571.862 532.752L570.844 531.229C562.381 519.436 563.812 509.962 568.226 497.094C562.179 491.41 562.955 489.626 562.41 481.22C564.113 473.111 563.812 454.464 563.891 445.448C566.224 441.776 563.632 439.669 565.465 434.047C570.862 431.534 578.517 431.532 584.696 431.042L586.292 428.801C586.36 423.941 586.477 423.543 588.677 419.202C590.176 399.745 590.211 376.834 590.776 357.148C591.319 338.258 592.377 313.816 590.321 295.602L591.539 290.694L589.253 285.538C588.914 283.736 587.846 280.902 587.231 279.067C585.831 277.461 577.623 263.991 574.37 259.637C590.079 260.214 614.896 250.104 628.779 243.108C630.527 236.016 629.74 235.594 627.843 228.423L626.966 227.294C621.381 222.968 611.331 211.972 607.007 206.266C599.116 201.99 590.13 193.705 584.622 186.666C583.879 185.038 584.47 185.862 582.461 184.53C580.036 188.074 581.579 187.261 578.311 188.358L576.328 187.092L579.236 186.332L579.555 185.359C573.163 175.518 526.508 149.929 516.056 156.768C514.684 160.686 517.549 163.472 517.72 168.637L515.227 167.029C514.144 161.007 513.785 159.581 511.429 153.954L509.794 152.289C508.688 150.669 507.609 149.035 506.549 147.385C503.591 142.674 502.861 141.653 503.914 137.177L503.004 134.431C504.556 131.645 505.87 132.269 507.519 129.006C501.259 126.126 490.466 120.809 483.911 120.365C484.45 122.413 484.324 121.402 484.335 123.393C472.314 129.024 448.818 126.849 437.054 121.033L437.88 120.348L443.492 121.312L443.644 121.154L442.457 120.748L442.07 119.348C437.516 115.523 434.922 111.9 432.906 106.366C432.066 104.782 427.785 99.2343 426.538 97.5469C424.753 96.5363 423.67 94.3854 422.371 92.5135C420.841 85.0962 382.537 42.5262 375.602 35.8055C375.854 34.3774 375.606 35.2693 376.762 33.2898C387.214 31.0488 436.764 25.4727 445.842 26.9227C466.662 25.1036 514.55 21.1972 533.182 16.6625C535.518 13.0066 537.837 9.21453 541.444 6.91862C557.561 -5.79571 587.763 2.14657 603.589 12.242Z" fill="#E90013"/>
<path d="M603.589 12.242C632.27 8.40376 673.353 2.11137 701.524 0C717.77 7.85665 745.952 29.891 762.103 41.476L862.39 113.062C878.126 124.441 910.741 145.087 923.075 155.94C934.132 163.432 959.003 179.576 967.793 187.758C977.993 193.888 1021.19 223.086 1023.9 232.619C1025.18 237.132 1012.22 332.746 1010.08 344.726C1004.78 346.341 989.168 349.276 987.422 349.979L986.803 351.412C973.612 354.966 959.049 357.421 945.526 359.567C867.511 371.948 788.496 381.491 710.577 394.215L710.105 392.497C706.104 393.195 705.379 393.164 701.387 392.382C690.447 393.129 678.729 395.695 666.848 396.528C669.115 365.939 669.429 334.655 670.064 303.991C670.203 297.347 670.37 290.356 669.251 283.815C664.565 282.165 662.448 284.27 656.548 282.268C647.472 282.604 599.153 288.257 591.539 290.694L589.253 285.538C588.914 283.736 587.846 280.902 587.231 279.067C585.831 277.461 577.623 263.991 574.37 259.637C590.079 260.214 614.896 250.104 628.779 243.108C630.527 236.016 629.74 235.594 627.843 228.423L626.966 227.294C621.381 222.968 611.331 211.972 607.007 206.266C599.116 201.99 590.13 193.705 584.622 186.666C583.879 185.038 584.47 185.862 582.461 184.53C580.036 188.074 581.579 187.261 578.311 188.358L576.328 187.092L579.236 186.332L579.555 185.359C573.163 175.518 526.508 149.929 516.056 156.768C514.684 160.686 517.549 163.472 517.72 168.637L515.227 167.029C514.144 161.007 513.785 159.581 511.429 153.954L509.794 152.289C508.688 150.669 507.609 149.035 506.549 147.385C503.591 142.674 502.861 141.653 503.914 137.177L503.004 134.431C504.556 131.645 505.87 132.269 507.519 129.006C501.259 126.126 490.466 120.809 483.911 120.365C484.45 122.413 484.324 121.402 484.335 123.393C472.314 129.024 448.818 126.849 437.054 121.033L437.88 120.348L443.492 121.312L443.644 121.154L442.457 120.748L442.07 119.348C437.516 115.523 434.922 111.9 432.906 106.366C432.066 104.782 427.785 99.2343 426.538 97.5469C424.753 96.5363 423.67 94.3854 422.371 92.5135C420.841 85.0962 382.537 42.5262 375.602 35.8055C375.854 34.3774 375.606 35.2693 376.762 33.2898C387.214 31.0488 436.764 25.4727 445.842 26.9227C466.662 25.1036 514.55 21.1972 533.182 16.6625C535.518 13.0066 537.837 9.21453 541.444 6.91862C557.561 -5.79571 587.763 2.14657 603.589 12.242Z" fill="#E90013"/>
<path d="M375.602 35.8057C375.854 34.3776 375.606 35.2695 376.762 33.29C387.214 31.049 436.764 25.4729 445.842 26.9229C450.999 35.8935 458.571 43.2976 465.034 51.3344C479.554 69.3963 494.796 86.6805 510.475 103.71C515.966 109.675 506.101 116.053 506.954 121.39C512.634 126.658 516.289 125.195 523.349 123.152C522.721 126.66 522.255 126.454 519.839 129.468C516.96 126.478 518.67 127.357 514.491 126.81C510.394 128.752 506.453 133.471 503.914 137.177L503.004 134.431C504.556 131.645 505.87 132.269 507.519 129.007C501.259 126.126 490.466 120.809 483.911 120.366C484.45 122.413 484.324 121.403 484.335 123.393C472.314 129.024 448.818 126.849 437.054 121.034L437.88 120.348L443.492 121.313L443.644 121.154L442.457 120.748L442.07 119.348C437.516 115.523 434.922 111.9 432.906 106.366C432.066 104.782 427.785 99.2345 426.538 97.5471C424.753 96.5365 423.67 94.3856 422.371 92.5137C420.841 85.0964 382.537 42.5264 375.602 35.8057Z" fill="#E90013"/>
<path d="M426.555 97.5461L427.907 96.1641C434.573 99.5146 447.195 112.416 450.409 119.721L449.677 121.092C441.706 119.255 438.93 111.592 432.923 106.365C432.083 104.781 427.801 99.2334 426.555 97.5461Z" fill="#E90013"/>
<path d="M463.384 91.8516C472.97 92.9171 495.406 107.593 495.934 116.891C486.941 114.255 467.378 102.872 462.617 94.7033L463.384 91.8516Z" fill="#9C0C04"/>
<path d="M511.438 153.954C515.484 153.912 513.928 154.653 516.531 152.333C517.054 146.221 514.082 145.544 515.179 141.548L516.55 141.207C521.221 146.298 521.971 147.969 530.176 148.321C536.263 148.574 542.319 147.374 547.847 144.821C567.14 137.788 603.538 144.401 622.398 152.071C647.793 162.564 670.677 178.311 689.546 198.28C696.089 207.437 698.47 210.48 701.826 221.553L700.629 225.547C692.953 229.487 678.331 221.498 670.563 226.723C657.935 225.299 645.135 216.509 635.116 213.598C629.43 213.885 614.032 208.243 607.016 206.266C599.124 201.991 590.138 193.706 584.63 186.666C583.887 185.038 584.478 185.862 582.469 184.531C580.045 188.074 581.588 187.262 578.319 188.358L576.337 187.092L579.245 186.332L579.563 185.359C573.171 175.518 526.516 149.929 516.064 156.769C514.693 160.686 517.557 163.472 517.728 168.637L515.236 167.029C514.152 161.007 513.794 159.581 511.438 153.954Z" fill="url(#paint0_linear_1000_29274)"/>
<path d="M584.625 186.664C599.038 194.264 621.285 207.786 635.111 213.595C629.425 213.883 614.027 208.241 607.011 206.264C599.119 201.989 590.133 193.703 584.625 186.664Z" fill="#DFA864"/>
<path d="M541.454 6.91968C545.004 6.87354 544.705 6.65596 547.62 5.74418C558.9 2.21572 571.124 2.49038 582.697 4.34689C588.377 5.24548 597.198 10.3338 601.691 13.6909L602.541 15.9341C586.165 14.2775 575.986 16.5514 561.013 23.3733C555.37 25.9438 551.319 25.8956 546.936 30.8632L547.18 31.9177C556.302 27.1501 561.21 23.7138 571.333 20.4205C575.272 22.7449 594.584 41.4331 598.565 46.0316C581.996 69.1731 544.533 101.408 518.721 116.616C518.044 117.016 516.653 116.733 515.813 116.614C511.694 109.502 520.2 101.195 510.173 92.0531C509.537 87.8392 510.516 87.5383 510.716 83.7418L511.135 83.7219C513.85 84.258 512.489 84.247 515.217 83.7505C517.967 78.6335 521.82 50.0104 524.155 40.73C526.847 32.2275 529.832 24.9465 533.191 16.6636C535.528 13.0077 537.847 9.2156 541.454 6.91968Z" fill="#E90013"/>
<path d="M627.848 228.424C631.908 231.919 645.339 242.995 648.245 246.323L649.223 248.057C654.021 256.46 661.512 263.465 662.882 272.795L661.928 273.949L660.437 273.991C641.973 274.702 616.566 279.457 598.128 282.983C593.624 283.844 590.942 281.298 588.069 278.69L587.236 279.068C585.836 277.462 577.628 263.992 574.375 259.637C590.085 260.215 614.901 250.104 628.785 243.109C630.532 236.017 629.745 235.595 627.848 228.424Z" fill="#E90013"/>
<path d="M618.352 124.646C620.966 122.853 632.44 122.374 636.926 121.24L638.434 121.741C635.319 124.241 630.218 125.362 626.254 126.575L627.553 126.439C616.624 129.481 606.183 131.461 596.382 136.864C601.315 136.989 609.518 137.296 614.725 136.352C617.479 135.851 614.228 132.373 618.282 134.798C615.629 139.46 610.125 139.414 610.388 141.783C615.191 142.385 616.075 142.527 619.598 146.291C622.649 149.554 629.778 150.927 633.559 153.704C645.637 160.286 688.498 185.563 689.542 198.278C670.674 178.309 647.789 162.562 622.394 152.069C603.535 144.399 567.136 137.786 547.843 144.819C542.315 147.372 536.259 148.572 530.173 148.319C521.967 147.967 521.218 146.295 516.547 141.205L515.175 141.545C514.078 145.542 517.05 146.219 516.527 152.331C513.925 154.651 515.481 153.91 511.434 153.952L509.799 152.287C513.821 143.316 504.455 143.641 515.079 134.242C520.703 131.582 527.26 136.187 534.714 135.692C537.51 133.287 552.09 133.946 559.647 131.333C561.654 128.864 610.736 125.883 618.352 124.646Z" fill="#E90013"/>
<path d="M618.364 124.648L618.762 126.545C617.228 127.184 613.698 128.326 612.124 128.346C605.178 128.425 595.17 138.072 589.912 138.791C573.589 141.021 553.268 136.084 536.569 136.236L534.727 135.695C537.523 133.289 552.103 133.949 559.66 131.336C561.667 128.867 610.748 125.885 618.364 124.648Z" fill="#9C0C04"/>
<path d="M515.078 134.244C520.703 131.583 527.26 136.188 534.714 135.694L536.556 136.234C536.565 139.527 536.307 139.009 534.582 142.252C526.51 147.771 520.316 140.23 515.078 134.244Z" fill="#E90013"/>
<path d="M607.023 206.266C614.04 208.243 629.438 213.885 635.124 213.597C645.143 216.508 657.943 225.299 670.571 226.722C679.308 228.122 689.532 230.556 697.983 228.871L698.12 230.233C689.332 237.91 679.225 230.235 675.576 236.862L675.07 237.578C667.531 247.588 660.286 248.541 648.256 246.322C645.35 242.994 631.919 231.918 627.859 228.423L626.982 227.294C621.397 222.968 611.347 211.971 607.023 206.266Z" fill="#8C0703"/>
<path d="M626.977 227.293C636.365 223.009 661.102 233.684 671.732 235.523C672.517 235.659 674.317 236.938 675.064 237.577C667.525 247.587 660.28 248.541 648.25 246.322C645.344 242.993 631.913 231.918 627.854 228.422L626.977 227.293Z" fill="#F7DF98"/>
<path d="M701.398 392.382L987.434 349.979L986.814 351.411C973.623 354.966 959.06 357.42 945.538 359.566C867.522 371.947 788.507 381.491 710.589 394.214L710.116 392.496C706.116 393.194 705.39 393.164 701.398 392.382Z" fill="#8C0703"/>
<path d="M511.13 83.7184C510.099 81.9981 510.517 82.3476 508.937 81.0601C480.786 58.147 497.192 44.5582 524.15 40.7266C521.815 50.0069 517.962 78.6301 515.212 83.747C512.484 84.2435 513.845 84.2545 511.13 83.7184Z" fill="#F7DF98"/>
<path d="M571.336 20.4173C594.671 15.4102 622.057 13.9866 598.568 46.0284C594.587 41.43 575.275 22.7418 571.336 20.4173Z" fill="#E90013"/>
<path d="M589.266 285.538C612.913 284.8 641.739 276.559 668.281 276.24C668.716 276.805 669.151 277.37 669.587 277.934C664.489 281.504 662.933 281.071 656.561 282.269C647.485 282.605 599.166 288.258 591.552 290.695L589.266 285.538Z" fill="#E90013"/>
<path d="M923.077 155.939C934.133 163.431 959.005 179.575 967.795 187.757C951.457 185.545 921.976 176.486 923.077 155.939Z" fill="#F7DF98"/>
<path d="M701.826 221.55L702.919 222.183C705.965 217.415 708.348 212.555 710.942 207.535L711.456 208.741C706.686 218.971 689.293 261.862 675.568 236.859C679.217 230.233 689.323 237.907 698.111 230.231L697.975 228.869C689.523 230.554 679.3 228.119 670.562 226.72C678.331 221.495 692.952 229.484 700.628 225.544L701.826 221.55Z" fill="#E90013"/>
<path d="M503.924 137.178C506.463 133.472 510.404 128.753 514.502 126.811C518.68 127.358 516.97 126.479 519.85 129.469L521.371 131.361C528.211 131.027 534.702 131.666 541.505 131.78C547.818 131.888 553.316 130.767 559.653 131.336C552.096 133.949 537.516 133.29 534.72 135.695C527.266 136.19 520.709 131.585 515.084 134.245C504.461 143.644 513.827 143.319 509.804 152.29C508.699 150.67 507.619 149.036 506.56 147.386C503.601 142.675 502.871 141.654 503.924 137.178Z" fill="#E90013"/>
<path d="M793.495 174.728C805.4 173.92 817.34 175.629 828.538 179.746C855.196 189.833 865.833 208.745 829.971 216.081C811.641 216.921 773.554 209.398 768.617 188.809C770.727 178.356 784.305 175.957 793.495 174.728Z" fill="#F7DF98"/>
<path d="M665.315 34.0251C683.99 32.5508 710.24 37.4327 719.988 56.2109C725.035 65.9307 708.855 71.0256 701.889 72.4844C693.561 73.3105 687.013 72.9963 678.895 71.3859C655.901 66.827 624.142 44.7928 665.315 34.0251Z" fill="#F7DF98"/>
<path d="M724.02 114.443C735.373 113.134 751.069 114.503 758.185 124.576C758.618 131.756 749.566 131.574 744.086 131.851C732.095 127.894 716.52 121.375 704.445 116.73L724.02 114.443Z" fill="#F7DF98"/>
<path d="M591.54 290.695C599.154 288.259 647.473 282.606 656.549 282.27C662.449 284.271 664.565 282.166 669.252 283.816C670.371 290.357 670.204 297.348 670.065 303.992C669.43 334.656 669.115 365.94 666.849 396.529C678.73 395.697 690.448 393.131 701.388 392.384C705.38 393.166 706.105 393.196 710.106 392.498L710.578 394.216C698.054 397.38 679.543 399.377 666.056 401.901L659.813 466.156C657.006 487.619 655.628 509.715 653.803 531.329C651.808 563.953 647.708 596.338 644.846 628.883C644.468 633.171 643.771 638.934 643.916 643.078C641.87 665.145 640.046 686.483 636.832 708.423C635.768 715.958 630.758 746.695 632.717 751.988C635.61 753.297 635.548 753.28 638.689 753.739C622.656 757.024 606.661 760.488 590.705 764.129C586.862 765.001 566.934 769.659 564.053 769.646C555.462 772.144 551.686 772.662 542.586 771.346C555.535 763.771 554.511 757.197 554.728 743.042C555.957 724.184 555.676 708.849 557.676 689.59L558.916 680.03C556.652 666.433 565.703 618.113 567.71 601.176C569.234 587.737 569.563 574.192 568.702 560.695C569.42 552.186 570.034 540.86 571.862 532.753L570.845 531.231C562.382 519.437 563.813 509.963 568.227 497.095C562.18 491.411 562.956 489.627 562.411 481.221C564.114 473.112 563.813 454.466 563.892 445.449C566.224 441.778 563.633 439.671 565.466 434.048C570.862 431.535 578.518 431.533 584.697 431.043L586.293 428.802C586.361 423.942 586.478 423.544 588.678 419.203C590.177 399.746 590.212 376.835 590.777 357.149C591.32 338.259 592.377 313.817 590.322 295.603L591.54 290.695Z" fill="url(#paint1_linear_1000_29274)"/>
<path d="M563.903 445.449C566.236 441.778 563.644 439.671 565.477 434.049C570.874 431.535 578.53 431.533 584.708 431.043L586.304 428.802C586.372 423.942 586.489 423.544 588.689 419.203C588.766 430.048 587.463 465.091 584.876 474.687C580.53 479.345 572.834 487.644 570.559 493.442L568.238 497.095C562.191 491.411 562.967 489.627 562.422 481.222C564.125 473.112 563.824 454.466 563.903 445.449Z" fill="#6C0102"/>
<path d="M571.87 532.75L579.7 538.124C579.863 553.958 576.359 579.237 574.785 595.135C573.528 607.834 572.655 657.444 568.131 665.276C562.19 669.767 561.363 672.856 558.923 680.027C556.659 666.43 565.711 618.11 567.718 601.173C569.241 587.733 569.571 574.188 568.709 560.692C569.428 552.183 570.041 540.857 571.87 532.75Z" fill="#8C0703"/>
<path d="M584.879 474.688C584.729 484.783 582.454 529.978 579.706 538.127L571.877 532.753L570.859 531.231C562.396 519.437 563.827 509.963 568.241 497.095L570.562 493.442C572.837 487.644 580.533 479.345 584.879 474.688Z" fill="#A65E2D"/>
<path d="M570.562 493.439C571.631 495.318 571.615 529.467 570.859 531.229C562.396 519.435 563.827 509.961 568.241 497.093L570.562 493.439Z" fill="#DFA864"/>
<path d="M554.728 743.038C555.957 724.181 555.676 708.845 557.676 689.586C558.806 696.329 559.375 702.445 563.143 708.265C563.336 713.692 559.782 770.44 559.096 769.427C561.811 768.926 561.406 768.732 564.053 769.642C555.462 772.14 551.686 772.659 542.586 771.343C555.535 763.767 554.511 757.194 554.728 743.038Z" fill="#8C0703"/>
<path d="M558.919 680.028C561.359 672.857 562.186 669.768 568.127 665.277C565.329 679.402 565.226 694.201 563.146 708.267C559.379 702.447 558.81 696.33 557.68 689.588L558.919 680.028Z" fill="#A65E2D"/>
<path d="M967.282 482.57C936.216 466.048 944.705 437.992 962.824 414.931C966.132 410.722 974.747 402.114 979.561 400.842C975.769 428.129 971.676 455.375 967.282 482.57Z" fill="#F7DF98"/>
<path d="M643.92 643.074C663.741 657.88 663.728 678.308 648.73 697.366C645.338 701.621 641.329 705.347 636.836 708.419C640.05 686.479 641.874 665.141 643.92 643.074Z" fill="#F7DF98"/>
<path d="M952.877 569.873C948.753 592.437 945.799 613.55 942.812 636.303C911.926 622.868 936.064 585.266 952.877 569.873Z" fill="#F7DF98"/>
<path d="M659.822 466.156C674.782 476.322 674.483 497.772 668.571 513.292C666.537 518.626 659.246 529.537 653.812 531.33C655.637 509.715 657.015 487.619 659.822 466.156Z" fill="#F7DF98"/>
<path d="M823.067 432.922C870.753 435.068 856.936 503.724 806.197 515.131C755.172 514.876 768.924 440.133 823.067 432.922Z" fill="#F7DF98"/>
<path d="M805.152 602.99C854.17 599.35 846.369 663.767 795.643 679.571C746.197 683.938 754.217 616.825 805.152 602.99Z" fill="#F7DF98"/>
<path d="M375.615 35.8047C382.55 42.5255 420.854 85.0955 422.384 92.5127C423.683 94.3846 424.766 96.5355 426.551 97.5462C427.798 99.2335 432.079 104.781 432.919 106.365C434.935 111.899 437.529 115.522 442.083 119.347L442.47 120.747L443.657 121.153L443.505 121.312L437.893 120.347L437.067 121.033C448.831 126.848 472.327 129.023 484.348 123.392C484.337 121.402 484.463 122.412 483.924 120.365C490.479 120.809 501.272 126.125 507.532 129.006C505.883 132.268 504.569 131.644 503.017 134.43L503.927 137.176C502.874 141.652 503.604 142.673 506.562 147.384C507.622 149.034 508.701 150.669 509.807 152.288L511.442 153.953C513.799 159.58 514.157 161.006 515.24 167.028L517.733 168.636C517.562 163.471 514.698 160.685 516.069 156.768C526.521 149.928 573.176 175.517 579.568 185.358L579.249 186.331L576.341 187.091L578.324 188.357C581.593 187.261 580.049 188.073 582.474 184.53C584.483 185.861 583.892 185.037 584.635 186.665C590.143 193.704 599.129 201.99 607.02 206.265C611.344 211.971 621.394 222.967 626.979 227.293L627.856 228.422C629.753 235.593 630.54 236.015 628.792 243.107C614.909 250.103 590.093 260.214 574.383 259.636C577.636 263.99 585.844 277.46 587.244 279.066C587.859 280.901 588.928 283.735 589.266 285.537L591.552 290.693L590.334 295.601C592.39 313.815 591.332 338.257 590.789 357.147C590.225 376.833 590.189 399.744 588.69 419.201C586.49 423.542 586.373 423.94 586.305 428.8L584.709 431.041C578.53 431.531 570.875 431.533 565.478 434.046C563.645 439.669 566.237 441.776 563.904 445.447C563.685 439.029 564.984 422.986 563.572 418.063L564.493 416.481L563.548 415.182L555.609 415.011C546.673 415.576 536.624 417.338 527.677 418.687C507.675 419.005 481.686 426.75 463.622 427.657C438.245 431.245 411.642 436.373 386.212 440.648L293.731 455.725C262.944 460.984 212.876 468.083 184.621 476.384C184.39 430.648 188.833 377.048 187.441 332.76C183.775 328.177 178.807 320.175 175.092 314.876C170.362 310.552 146.761 274.228 141.736 266.774C139.492 265.414 107.907 221.438 106.14 218.054C103.162 214.13 102.485 214.513 101.913 210.323L104.155 208.269C100.467 208.203 101.196 207.57 98.5983 208.963C95.4902 209.818 95.3868 209.912 92.1974 209.971C88.0122 200.377 67.1236 166.448 58.3333 162.39C57.6519 160.582 56.9639 157.923 56.3968 156.001C48.0177 146.38 39.8099 136.607 31.7824 126.69C25.9003 123.823 15.567 101.371 0 90.9593C0.472593 87.9186 0.142904 89.0348 1.81346 86.3214C6.30639 84.7308 26.0651 82.292 32.022 81.4615L105.621 71.6868L274.693 48.9013C302.345 45.1927 343.59 38.4433 370.328 36.8834L371.774 36.8504L375.615 35.8047Z" fill="#E90013"/>
<path d="M375.615 35.8047C382.55 42.5255 420.854 85.0955 422.384 92.5127C423.683 94.3846 424.766 96.5355 426.551 97.5462C427.798 99.2335 432.079 104.781 432.919 106.365C434.935 111.899 437.529 115.522 442.083 119.347L442.47 120.747L443.657 121.153L443.505 121.312L437.893 120.347L437.067 121.033C417.939 115.514 394.202 109.074 374.089 111.906C366.675 112.95 357.241 116.689 350.114 117.774L348.659 117.983C323.372 105.119 294.399 96.9089 266.068 104.359L260.032 103.709C256.662 107.444 253.244 110.612 252.222 115.632C252.43 118.737 252.327 122.087 253.639 124.809L253.771 126.499L253.967 129.397C250.285 132.53 243.884 132.668 238.558 133.499C204.437 140.487 171.25 145.633 136.801 150.491C120.043 152.852 94.0811 157.651 77.925 157.976C67.6247 158.393 66.6883 160.287 58.3333 162.39C57.6519 160.582 56.9639 157.923 56.3968 156.001C48.0177 146.38 39.8099 136.607 31.7824 126.69C25.9003 123.823 15.567 101.371 0 90.9593C0.472593 87.9186 0.142904 89.0348 1.81346 86.3214C6.30639 84.7308 26.0651 82.292 32.022 81.4615L105.621 71.6868L274.693 48.9013C302.345 45.1927 343.59 38.4433 370.328 36.8834L371.774 36.8504L375.615 35.8047Z" fill="#E90013"/>
<path d="M375.614 35.8047C382.549 42.5255 420.853 85.0955 422.383 92.5127C423.682 94.3846 424.766 96.5355 426.551 97.5462C427.797 99.2335 432.079 104.781 432.919 106.365C434.935 111.899 437.528 115.522 442.083 119.347L442.47 120.747L443.657 121.153L443.505 121.312L437.893 120.347L437.067 121.033C417.939 115.514 394.201 109.074 374.089 111.906C366.675 112.95 357.24 116.689 350.114 117.774L348.659 117.983C323.372 105.119 294.399 96.9089 266.067 104.359L260.031 103.709L266.582 98.6534C301.373 84.656 325.5 85.8973 362.507 85.3524C374.174 85.1789 385.91 85.5634 397.485 84.0584C390.157 73.3478 371.361 48.9781 370.328 36.8834L371.774 36.8504L375.614 35.8047Z" fill="#E90013"/>
<path d="M375.614 35.8047C382.549 42.5255 420.853 85.0955 422.383 92.5127C411.766 90.197 408.005 89.1643 401.404 79.8642C391.317 65.6581 382.025 50.9423 371.773 36.8504L375.614 35.8047Z" fill="#8C0703"/>
<path d="M31.7656 126.692C43.5673 107.944 81.3637 108.184 97.3175 120.094C117.107 134.867 101.843 147.579 84.6454 152.081L77.9082 157.978C67.6079 158.395 66.6715 160.289 58.3165 162.392C57.6351 160.583 56.9471 157.925 56.38 156.002C48.0008 146.382 39.7931 136.609 31.7656 126.692Z" fill="#F7DF98"/>
<path d="M56.3984 156.004C66.9252 153.949 73.9722 152.937 84.6638 152.082L77.9266 157.979C67.6263 158.396 66.6899 160.29 58.3349 162.393C57.6535 160.585 56.9655 157.926 56.3984 156.004Z" fill="#E90013"/>
<path d="M253.769 126.5C249.456 129.898 219.421 120.267 220.113 106.605C227.297 90.0834 253.111 94.7961 266.579 98.6541L260.029 103.71C256.659 107.445 253.241 110.613 252.219 115.633C252.428 118.737 252.324 122.088 253.637 124.81L253.769 126.5Z" fill="#EBBC75"/>
<path d="M266.062 104.36C294.393 96.9098 323.366 105.12 348.653 117.984L340.969 122.169C357.503 129.38 338.825 139.768 348.253 152.106L353.043 153.512C357.228 152.849 361.42 152.229 365.618 151.656C389.907 144.305 404.692 144.588 429.497 148.927C433.261 148.901 436.171 148.391 439.272 150.309C438.696 154.853 433.179 157.201 433.689 161.099C434.949 170.726 450.881 176.746 438.362 186.763C436.439 188.323 434.415 189.757 432.302 191.051C429.058 193.773 425.29 197.115 421.918 199.565C419.144 202.129 418.478 202.278 415.19 204.005C410.262 203.124 384.542 195.957 381.495 192.117C374.094 182.786 380.91 181.336 381.11 175.887C377.512 175.384 379.385 175.298 375.398 177.432C373.325 178.034 370.74 179.003 368.702 179.02C362.682 176.114 357.327 179.084 349.124 177.049C332.291 171.414 301.469 180.371 283.537 179.996C277.426 178.076 270.111 171.392 263.874 170.704C251.466 169.336 228.848 168.237 225.41 153.069C224.436 148.774 223.526 144.305 222.469 140.023C226.935 136.268 233 138.274 238.552 133.5C243.878 132.669 250.279 132.531 253.961 129.398L253.765 126.5L253.634 124.81C252.321 122.088 252.425 118.738 252.216 115.633C253.238 110.613 256.656 107.445 260.026 103.71L266.062 104.36Z" fill="#E90013"/>
<path d="M266.065 104.36C294.396 96.9098 323.369 105.12 348.656 117.984L340.972 122.169C325.207 127.915 321.253 131.808 303.397 136.369C283.359 139.309 268.331 139.535 255.615 120.706L252.219 115.633C253.241 110.613 256.659 107.445 260.029 103.71L266.065 104.36Z" fill="#8C0703"/>
<path d="M260.029 103.707L266.065 104.357C259.82 108.378 255.615 111.863 259.549 119.497L260.928 119.84L261.912 116.571C266.131 116.768 283.41 128.077 287.718 130.772L288.12 132.115L287.283 133.367C289.725 134.91 298.533 135.107 303.397 136.366C283.359 139.306 268.331 139.532 255.615 120.703L252.219 115.63C253.241 110.61 256.659 107.442 260.029 103.707Z" fill="#9C0C04"/>
<path d="M252.219 115.633L255.615 120.706C268.331 139.534 283.359 139.308 303.397 136.369C321.253 131.807 325.207 127.914 340.972 122.169C357.506 129.38 338.829 139.767 348.256 152.106L353.046 153.512L345.588 153.987C323.552 153.119 289.03 151.998 270.151 141.439L268.531 139.341C265.234 137.742 262.073 134.437 259.294 131.867L253.637 124.81C252.324 122.088 252.428 118.737 252.219 115.633Z" fill="#E90013"/>
<path d="M252.219 115.633L255.615 120.706C268.331 139.534 283.359 139.308 303.397 136.369C321.253 131.807 325.207 127.914 340.972 122.169C357.506 129.38 338.829 139.767 348.256 152.106C336.162 151.533 348.173 132.658 344.271 125.733C339.71 125.752 332.81 129.872 328.111 131.537C306.101 139.337 291.343 143.081 268.531 139.341C265.234 137.742 262.073 134.437 259.294 131.867L253.637 124.81C252.324 122.088 252.428 118.737 252.219 115.633Z" fill="#E90013"/>
<path d="M421.919 199.565C410.461 195.68 390.001 193.259 384.147 182.68C384.176 180.903 383.85 178.981 384.824 178.702C399.648 174.567 415.703 170.008 430.624 166.369C436.706 164.886 432.965 188.593 432.303 191.051C429.059 193.773 425.291 197.115 421.919 199.565Z" fill="#6C0102"/>
<path d="M270.148 141.439C289.028 151.998 323.549 153.119 345.585 153.987C341.457 155.564 323.604 158.678 318.918 159.062C306.703 159.24 274.848 158.407 267.469 146.95C267.669 142.98 267.053 144.854 270.148 141.439Z" fill="#6C0102"/>
<path d="M318.908 159.06C305.141 162.776 240.568 160.192 246.698 136.789C251.185 134.557 249.762 136.585 254.675 136.44C258.942 136.317 254.917 135.613 259.282 131.865C262.061 134.436 265.222 137.74 268.519 139.34L270.139 141.438C267.044 144.852 267.659 142.978 267.459 146.948C274.838 158.406 306.693 159.238 318.908 159.06Z" fill="#8C0703"/>
<path d="M365.625 151.656C389.914 144.305 404.699 144.588 429.504 148.927C428.561 149.78 427.616 150.634 426.673 151.487C408.062 152.531 389.285 152.016 370.597 152.957C369.08 153.034 366.302 151.902 365.625 151.656Z" fill="#E90013"/>
<path d="M77.9276 157.977C94.0837 157.652 120.046 152.854 136.804 150.492C171.253 145.634 204.44 140.489 238.561 133.5C233.008 138.274 226.944 136.268 222.477 140.023C223.535 144.305 224.445 148.774 225.418 153.069C228.856 168.238 251.475 169.336 263.883 170.705C270.119 171.393 277.434 178.076 283.545 179.996C301.477 180.372 332.299 171.415 349.132 177.05C357.336 179.084 362.69 176.114 368.711 179.021L363.607 181.49C358.305 186.796 353.55 191.612 348.552 197.201C347.84 194.984 348.106 196.059 348.857 193.262L347.385 193.326C341.509 193.53 336.904 194 335.06 187.301C317.405 197.676 295.795 196.353 278.5 186.089L277.529 186.297C269.537 188.385 251.897 189.868 243.131 190.885C222.93 193.179 202.756 195.716 182.615 198.498C177.933 199.146 163.533 200.855 160.047 202.263L155.609 201.626C146.397 203.015 110.917 208.826 104.158 208.27C100.469 208.204 101.199 207.571 98.6009 208.964C95.4928 209.819 95.3894 209.913 92.2 209.973C88.0148 200.378 67.1262 166.449 58.3359 162.391C66.6909 160.289 67.6273 158.395 77.9276 157.977Z" fill="#E90013"/>
<path d="M278.492 186.086C282.396 183.689 314.928 184.038 321.289 181.839C323.389 181.114 337.595 180.321 340.525 180.435C339.951 183.524 337.509 185.058 335.052 187.299C317.396 197.673 295.787 196.35 278.492 186.086Z" fill="#EBBC75"/>
<path d="M155.602 201.625C159.235 199.948 167.783 198.008 171.448 197.817C185.938 197.068 269.008 182.029 277.522 186.296C269.529 188.383 251.89 189.866 243.124 190.883C222.923 193.177 202.749 195.715 182.607 198.496C177.925 199.144 163.526 200.854 160.039 202.262L155.602 201.625Z" fill="#8C0703"/>
<path d="M349.116 177.047C357.319 179.081 362.674 176.111 368.694 179.018L363.59 181.487C358.264 181.858 348.346 182.588 343.539 180.415L343.998 179.04L349.116 177.047Z" fill="#8C0703"/>
<path d="M515.238 167.028L517.731 168.636C517.56 163.471 514.695 160.685 516.067 156.767C526.519 149.928 573.174 175.517 579.566 185.358L579.247 186.331L576.339 187.091L578.322 188.357C581.59 187.26 580.047 188.073 582.472 184.529C584.481 185.861 583.89 185.037 584.633 186.665C590.141 193.704 599.127 201.989 607.018 206.265C611.342 211.971 621.392 222.967 626.977 227.293L627.854 228.422C629.751 235.593 630.538 236.015 628.79 243.107C614.907 250.103 590.09 260.213 574.381 259.636C577.634 263.99 585.842 277.46 587.242 279.066C587.857 280.901 588.925 283.735 589.264 285.537L591.55 290.693L590.332 295.601C590.381 299.018 590.546 301.511 589.952 304.915L588.945 305.839C588.715 301.689 587.998 287.507 586.752 284.359C581.848 271.963 561.405 249.619 552.059 240.137C545.964 231.177 524.609 217.272 514.992 211.371L516.353 191.545C516.278 183.075 515.812 175.489 515.238 167.028Z" fill="#9C0C04"/>
<path d="M516.353 191.547C527.981 202.053 544.867 223.654 555.453 235.795C559.598 240.548 570.536 256.511 574.381 259.638C577.634 263.992 585.842 277.463 587.242 279.069C587.857 280.903 588.925 283.737 589.264 285.539L591.55 290.695L590.332 295.604C590.381 299.02 590.546 301.514 589.952 304.917L588.945 305.842C588.715 301.692 587.998 287.51 586.752 284.361C581.848 271.965 561.405 249.622 552.059 240.139C545.964 231.179 524.609 217.274 514.992 211.373L516.353 191.547Z" fill="#6C0102"/>
<path d="M501.329 134.066L503.008 134.431L503.918 137.177C502.865 141.653 503.595 142.674 506.554 147.385C507.613 149.035 508.692 150.669 509.798 152.289L511.434 153.954C513.79 159.581 514.148 161.007 515.232 167.029C515.806 175.49 516.272 183.076 516.346 191.546L514.986 211.372C524.602 217.273 545.957 231.178 552.052 240.138C548.054 239.107 544.221 236.475 540.609 234.335C558.972 254.509 509.029 257.589 494.271 252.922C493.189 252.588 492.121 252.215 491.066 251.8C491.387 257.33 492.248 261.227 490.035 266.19C491.273 247.783 484.318 257.523 484.72 246.257C484.938 240.114 492.743 222.355 493.961 215.801C496.939 199.78 499.08 167.382 498.219 151.282L495.957 150.241C495.906 148.358 496.429 146.108 496.372 143.76C493.268 144.063 490.725 144.54 487.683 145.093C494.572 141.677 497.961 140.756 501.329 134.066Z" fill="#E90013"/>
<path d="M512.113 215.752C521.382 220.544 532.03 228.2 540.613 234.335C558.976 254.508 509.033 257.588 494.275 252.922C493.194 252.588 492.125 252.214 491.07 251.799C491.424 249.558 502.07 236.046 504.527 231.632C508.101 225.217 509.238 222.78 512.113 215.752Z" fill="#EBBC75"/>
<path d="M141.727 266.775C152.172 260.7 171.603 260.948 182.908 264.648C228.576 279.588 217.234 309.529 175.083 314.877C170.352 310.553 146.751 274.229 141.727 266.775Z" fill="#F7DF98"/>
<path d="M495.963 150.24L498.225 151.282C499.086 167.382 496.945 199.779 493.967 215.8C492.749 222.354 484.944 240.113 484.726 246.256C484.324 257.522 491.279 247.783 490.041 266.189C470.32 265.464 470.181 284.954 436.856 274.892L436.095 273.453L438.693 271.695C435.467 269.538 411.006 269.619 406.827 272.168L407.289 273.284C411.065 273.875 417.88 274.062 420.942 275.129C418.422 280.462 407.713 276.612 403.205 274.888C402.506 274.62 400.563 271.192 400.086 270.362C401.119 268.883 401.794 268.6 403.264 267.42C406.88 269.944 425.92 267.973 431.07 267.679C446.022 266 449.407 258.194 463.763 257.577C465.444 257.505 464.442 257.852 466.148 256.566L464.363 255.009C460.637 255.343 459.556 254.8 456.197 253.528C463.499 253.688 468.634 254.246 475.903 255.105C476.527 253.664 476.894 226.44 477.015 222.145C477.866 191.822 482.9 177.541 495.963 150.24Z" fill="#E90013"/>
<path d="M456.197 253.527C463.499 253.688 468.634 254.246 475.903 255.105C480.943 256.089 485.517 254.837 490.747 254.905C461.217 268.147 464.871 268.237 431.07 267.678C446.022 266 449.407 258.194 463.763 257.577C465.444 257.504 464.442 257.851 466.148 256.566L464.363 255.008C460.637 255.342 459.556 254.799 456.197 253.527Z" fill="#9C0C04"/>
<path d="M400.078 270.363C383.076 283.589 361.836 281.194 343.49 272.369C333.515 267.57 323.017 256.146 330.165 244.789C335.023 237.071 344.86 235.269 353.056 233.389C367.694 258.316 373.925 259.402 402.138 262.515L403.257 267.421C401.786 268.601 401.111 268.884 400.078 270.363Z" fill="url(#paint2_linear_1000_29274)"/>
<path d="M402.137 262.514C400.097 260.963 399.236 260.038 396.71 259.702C380.407 257.529 367.653 250.332 356.874 237.602L357.593 234.225L356.208 236.358L356.078 235.893L357.445 234.234C362.004 233.704 369.247 238.279 374.221 239.957C400.361 248.776 428.616 251.634 456.189 253.528C459.547 254.8 460.629 255.343 464.355 255.009L466.139 256.567C464.434 257.852 465.436 257.505 463.755 257.577C449.399 258.195 446.014 266.001 431.062 267.679C425.912 267.974 406.872 269.945 403.256 267.42L402.137 262.514Z" fill="#6C0102"/>
<path d="M590.335 295.602C592.39 313.815 591.333 338.257 590.79 357.148C590.225 376.833 590.19 399.744 588.691 419.201C586.491 423.542 586.374 423.94 586.306 428.8L584.71 431.041C578.531 431.531 570.875 431.533 565.479 434.046C563.646 439.669 566.237 441.776 563.905 445.447C563.685 439.029 564.984 422.987 563.573 418.063L564.494 416.481L563.549 415.183L555.609 415.011C560.309 413.612 577.327 411.476 584.07 410.204C585.148 375.809 587.647 340.547 588.948 305.84L589.955 304.915C590.548 301.512 590.383 299.018 590.335 295.602Z" fill="url(#paint3_linear_1000_29274)"/>
<path d="M375.404 177.43C379.392 175.297 377.519 175.382 381.117 175.886C380.917 181.334 374.101 182.784 381.502 192.115C384.548 195.956 410.269 203.122 415.197 204.003C394.622 212.106 374.347 212.939 352.867 210.931C357.351 199.934 374.93 180.014 375.404 177.43Z" fill="#E90013"/>
<path d="M155.599 201.627L160.037 202.264C149.053 223.426 126.903 228.402 106.133 218.056C103.155 214.132 102.478 214.515 101.906 210.325L104.148 208.271C110.907 208.827 146.387 203.015 155.599 201.627Z" fill="#F7DF98"/>
<path d="M487.691 145.092C487.113 144.012 487.216 143.504 487.031 142.188C490.856 137.297 494.85 132.257 501.337 134.066C497.969 140.756 494.58 141.676 487.691 145.092Z" fill="#E90013"/>
<path d="M437.737 129.775C446.844 130.953 455.963 132.041 465.094 133.038C460.694 136.149 456.271 139.231 451.829 142.283C443.151 148.402 438.253 145.418 429.023 142.619C432.055 137.083 433.202 134.251 437.737 129.775Z" fill="#E90013"/>
<path d="M527.671 418.687C536.617 417.338 546.667 415.576 555.602 415.012L563.541 415.183L564.487 416.482L563.566 418.064C564.977 422.987 563.678 439.03 563.898 445.448C563.818 454.464 564.12 473.111 562.416 481.22C562.961 489.626 562.185 491.41 568.232 497.093C563.818 509.962 562.387 519.435 570.85 531.229L571.868 532.752C570.039 540.859 569.426 552.185 568.707 560.694C569.569 574.19 569.239 587.735 567.716 601.174C565.709 618.112 556.657 666.431 558.921 680.029L557.681 689.588C555.681 708.848 555.962 724.183 554.734 743.04C551.254 737.455 555.932 693.659 555.571 685.084C555.283 678.196 554.698 671.036 553.571 663.773C547.931 673.798 550.17 674.341 540.672 683.377C530.77 692.798 530.473 697.111 515.656 697.682C506.595 705.442 506.29 699.91 495.576 703.566C490.076 705.442 484.049 712.697 477.09 713.085C475.872 711.016 476.314 712.062 475.69 709.979C466.009 711.477 465.205 711.838 456.283 706.844C455.302 706.294 454.164 711.721 450.546 710.634L449.757 708.858C440.538 720.553 439.74 734.54 425.947 742.651C422.99 744.391 421.834 747.037 418.284 747.07L417.323 746.228C401.315 752.389 395.494 754.447 378.857 748.452L377.5 749.249C369.825 747.085 364.114 734.885 362.619 727.751C357.832 704.888 372.621 687.191 388.515 673.33C389.443 672.524 388.271 670.07 387.959 668.975C377.14 655.912 339.948 662.024 323.418 659.148C304.805 655.909 305.308 647.607 291.17 635.692C280.628 626.807 267.74 618.421 258.462 608.027C255.25 604.43 252.202 598.164 248.878 593.865C244.376 598.527 238.035 606.14 232.595 609.088C220.166 615.82 200.566 623.903 188.437 613.726L178.91 608.376C178.31 588.638 173.298 554.832 182.531 539.751C180.618 535.41 183.361 489.832 185.896 484.924C198.372 487.222 210.431 482.892 222.848 481.101C231.474 479.855 240.196 479.473 248.698 478.197C270.233 474.963 291.519 468.987 313.322 467.805C321.449 467.356 325.221 466.77 332.808 463.76L331.516 463.149C319.771 467.583 308.473 466.447 295.995 467.062C278.775 467.91 210.09 482.197 197.9 479.328L197.73 478.759C194.246 477.448 189.112 479.511 184.909 480.611L185.713 479.1C198.735 472.711 259.895 463.509 277.977 460.374L466.521 428.644L463.616 427.658C481.68 426.751 507.668 419.006 527.671 418.687Z" fill="#E90013"/>
<path d="M182.531 539.753C222.27 494.195 283.551 553.871 238.455 600.899C229.585 610.291 217.346 615.779 204.43 616.153C198.528 616.274 194.013 615.395 188.437 613.727L178.91 608.377C178.31 588.639 173.298 554.833 182.531 539.753Z" fill="#EBBC75"/>
<path d="M378.854 748.453C368.631 740.515 362.944 730.833 363.579 716.482C365.026 683.86 412.573 653.732 437.229 682.693C442.907 689.361 444.659 703.368 443.201 712.255C440.744 727.245 429.164 737.936 417.321 746.23C401.312 752.39 395.491 754.449 378.854 748.453Z" fill="#EBBC75"/>
<path d="M568.703 560.693C560.816 534.324 552.2 508.539 562.412 481.219C562.957 489.625 562.181 491.409 568.228 497.092C563.815 509.961 562.384 519.434 570.846 531.228L571.864 532.751C570.035 540.858 569.422 552.183 568.703 560.693Z" fill="#E90013"/>
<path d="M463.613 427.658C481.677 426.751 507.665 419.006 527.668 418.688C530.845 420.729 530.161 420.814 533.634 421.236L532.418 421.421C520.269 423.328 508.899 426.28 497.115 429.629C488.105 432.188 474.584 439.551 465.886 436.517L465.354 434.816L463.578 435.141C467.537 434.3 473.762 433.86 475.558 431.38C478.105 427.856 484.093 427.869 488.441 427.645C480.747 425.221 474.722 427.397 466.519 428.644L463.613 427.658Z" fill="#9C0C04"/>
<path d="M527.664 418.687C536.61 417.338 546.66 415.576 555.595 415.012L563.535 415.183L564.48 416.482L563.559 418.064C552.769 418.865 544.407 419.632 533.63 421.236C530.157 420.814 530.84 420.729 527.664 418.687Z" fill="#6C0102"/>
<path d="M415.12 492.148C471.093 493.032 460.194 569.127 407.688 579.617C399.577 580.248 391.479 578.231 384.615 573.868C353.125 553.523 373.448 498.045 415.12 492.148Z" fill="#F7DF98"/>
<path d="M0 90.959C15.567 101.371 25.9003 123.822 31.7824 126.69C39.8099 136.607 48.0177 146.38 56.3968 156C56.9639 157.923 57.6519 160.581 58.3333 162.39C67.1236 166.447 88.0122 200.376 92.1974 209.971C95.3868 209.912 95.4902 209.817 98.5983 208.963L98.8247 211.228L97.9938 211.959C93.9229 215.62 93.2723 216.209 93.2327 222C92.9843 258.658 98.0729 295.474 97.119 332.068C97.075 333.724 101.438 341.484 102.166 344.136L98.1498 344.78C96.2067 348.24 97.4465 367.427 97.4509 372.876C97.5366 482.241 103.559 591.441 113.732 700.243C114.631 709.857 127.914 724.714 127.106 736.132C120.782 723.626 115.987 711.083 110.176 698.413C94.5054 664.055 79.3539 629.465 64.7255 594.653C62.3581 589.298 60.7556 585.998 59.3466 580.225C56.6034 574.769 46.5207 555.211 45.7426 550.499C41.5508 525.142 40.1792 494.399 38.4976 468.689L29.1008 319.681C27.5907 291.805 26.7377 263.876 24.7551 236C24.8957 221.58 5.70629 207.506 3.59171 194.304C-1.74749 161.005 1.98929 124.519 0 90.959Z" fill="url(#paint4_linear_1000_29274)"/>
<path d="M52.4849 508.678C58.9364 521.632 73.4021 585.216 64.7152 594.653C62.3478 589.299 60.7454 585.999 59.3364 580.225C54.694 547.805 50.4473 544.022 52.4849 508.678Z" fill="#9C0C04"/>
<path d="M47.108 332.844C48.6422 333.507 50.0292 334.224 50.7348 335.849C61.2967 360.136 65.9963 403.732 59.7822 428.802C58.3447 428.971 59.2525 428.989 57.1445 428.126C46.6859 411.885 45.2022 352.261 47.108 332.844Z" fill="#A65E2D"/>
<path d="M182.783 721.214C246.256 678.627 277.544 757.444 224.666 787.326C218.738 790.707 212.258 793.014 205.523 794.139C193.49 796.604 188.78 794.308 178.831 788.066C178.688 768.229 178.29 747.254 178.934 727.368C179.064 723.376 180.258 723.156 182.783 721.214Z" fill="#DFA864"/>
<path d="M178.831 788.069C178.688 768.232 178.29 747.256 178.934 727.371C179.064 723.379 180.258 723.159 182.783 721.217C189.395 734.371 183.588 774.186 185.698 790.134C185.911 791.742 202.99 793.546 205.523 794.141C193.49 796.606 188.78 794.311 178.831 788.069Z" fill="#BB7E47"/>
<path d="M121.608 436.543C138.521 445.621 142.495 525.519 132.882 542.992C120.347 541.479 113.383 453.401 121.608 436.543Z" fill="#BB7E47"/>
<path d="M125.32 631.846C133.151 636.062 136.937 662.971 138.139 671.153C141.168 691.755 141.506 710.529 137.543 730.952L135.791 729.83C124.232 710.096 120.178 654.809 125.32 631.846Z" fill="#A65E2D"/>
<path d="M181.352 327.842C182.913 333.934 163.209 416.152 159.74 427.408C157.663 419.103 177.189 338.871 181.352 327.842Z" fill="#1E0001"/>
<defs>
<linearGradient id="paint0_linear_1000_29274" x1="614.036" y1="200.261" x2="635.013" y2="159.531" gradientUnits="userSpaceOnUse">
<stop stop-color="#970101"/>
<stop offset="1" stop-color="#D40302"/>
</linearGradient>
<linearGradient id="paint1_linear_1000_29274" x1="683.619" y1="735.831" x2="547.521" y2="305.629" gradientUnits="userSpaceOnUse">
<stop stop-color="#A10202"/>
<stop offset="1" stop-color="#DC0305"/>
</linearGradient>
<linearGradient id="paint2_linear_1000_29274" x1="391.071" y1="266.833" x2="328.297" y2="254.75" gradientUnits="userSpaceOnUse">
<stop stop-color="#FBB159"/>
<stop offset="1" stop-color="#F9D97E"/>
</linearGradient>
<linearGradient id="paint3_linear_1000_29274" x1="608.514" y1="355.969" x2="547.79" y2="374.278" gradientUnits="userSpaceOnUse">
<stop stop-color="#150000"/>
<stop offset="1" stop-color="#6C0001"/>
</linearGradient>
<linearGradient id="paint4_linear_1000_29274" x1="102.984" y1="390.627" x2="5.48261" y2="392.101" gradientUnits="userSpaceOnUse">
<stop stop-color="#740400"/>
<stop offset="1" stop-color="#AD0B15"/>
</linearGradient>
</defs>
</svg>
